<svg width="898" height="473" viewBox="0 0 898 473" fill="none" xmlns="http://www.w3.org/2000/svg">
<g clip-path="url(#clip0)">
<path d="M777.682 67.9043L281.856 256.78L274.24 236.786C270.407 226.724 259.202 221.701 249.14 225.534L247.322 226.226C237.26 230.059 232.237 241.265 236.07 251.327L243.686 271.321L44.1352 347.336C27.9712 353.493 19.8936 371.512 26.051 387.676L32.8513 405.528C39.0087 421.692 57.0272 429.769 73.1912 423.612L272.807 347.572L280.399 367.501C284.231 377.563 295.437 382.586 305.499 378.753L307.317 378.061C317.378 374.228 322.402 363.023 318.569 352.961L310.953 332.967L806.714 144.115L868.449 76.8889L777.682 67.9043Z" fill="#FF8288"/>
<path d="M221.11 282.894L215.183 369.002" stroke="#DB4F5B" stroke-width="12.8347" stroke-miterlimit="10" stroke-linecap="round" stroke-linejoin="round"/>
<path d="M184.567 294.287L178.574 380.42" stroke="#DB4F5B" stroke-width="12.8347" stroke-miterlimit="10" stroke-linecap="round" stroke-linejoin="round"/>
<path d="M146.395 308.828L140.468 394.936" stroke="#DB4F5B" stroke-width="12.8347" stroke-miterlimit="10" stroke-linecap="round" stroke-linejoin="round"/>
<path d="M108.29 323.343L102.298 409.476" stroke="#DB4F5B" stroke-width="12.8347" stroke-miterlimit="10" stroke-linecap="round" stroke-linejoin="round"/>
<path d="M108.29 323.343L102.298 409.476" stroke="#DB4F5B" stroke-width="12.8347" stroke-miterlimit="10" stroke-linecap="round" stroke-linejoin="round"/>
<path d="M70.1199 337.883L64.1925 423.992" stroke="#DB4F5B" stroke-width="12.8347" stroke-miterlimit="10" stroke-linecap="round" stroke-linejoin="round"/>
<path d="M427.161 239.629C426.975 239.832 427.019 239.947 427.293 239.974C431.655 240.466 434.67 242.9 436.337 247.275C437.755 250.998 437.563 254.302 435.761 257.186C433.944 260.031 430.982 262.236 426.876 263.801L411.965 269.481C411.773 269.554 411.578 269.562 411.381 269.505C411.207 269.396 411.084 269.245 411.011 269.053L396.186 230.135C396.112 229.943 396.112 229.767 396.183 229.608C396.278 229.396 396.421 229.254 396.613 229.181L411.064 223.676C420.16 220.211 426.112 222.163 428.919 229.532C430.381 233.37 429.795 236.736 427.161 239.629ZM406.981 233.208C406.79 233.281 406.73 233.414 406.803 233.606L410.224 242.587C410.298 242.779 410.43 242.838 410.622 242.765L417.358 240.199C419.162 239.512 420.402 238.556 421.078 237.332C421.754 236.107 421.815 234.766 421.259 233.307C420.689 231.81 419.744 230.83 418.424 230.365C417.09 229.863 415.521 229.955 413.717 230.642L406.981 233.208ZM424.2 256.777C425.966 256.104 427.179 255.137 427.841 253.874C428.488 252.572 428.512 251.135 427.912 249.561C427.313 247.988 426.346 246.95 425.012 246.447C423.663 245.906 422.087 245.979 420.283 246.666L413.144 249.386C412.952 249.459 412.893 249.591 412.966 249.783L416.606 259.34C416.679 259.532 416.812 259.591 417.004 259.518L424.2 256.777ZM462.593 211.233C462.666 211.425 462.655 211.627 462.56 211.839C462.489 211.998 462.357 212.114 462.165 212.187L443.282 219.38C443.09 219.453 443.031 219.586 443.104 219.778L446.503 228.701C446.576 228.893 446.709 228.952 446.901 228.879L459.278 224.164C459.47 224.091 459.653 224.109 459.827 224.219C460.024 224.276 460.159 224.4 460.232 224.592L462.36 230.176C462.433 230.368 462.422 230.57 462.327 230.782C462.255 230.941 462.124 231.057 461.932 231.13L449.554 235.845C449.362 235.919 449.303 236.051 449.376 236.243L452.929 245.569C453.002 245.761 453.134 245.821 453.326 245.748L472.21 238.554C472.402 238.481 472.584 238.5 472.758 238.609C472.955 238.666 473.091 238.79 473.164 238.982L475.291 244.566C475.364 244.758 475.353 244.96 475.258 245.172C475.187 245.331 475.055 245.447 474.863 245.521L448.265 255.653C448.073 255.726 447.879 255.734 447.681 255.677C447.508 255.568 447.384 255.417 447.311 255.225L432.486 216.307C432.413 216.115 432.412 215.939 432.483 215.78C432.578 215.568 432.722 215.426 432.914 215.353L459.512 205.221C459.704 205.148 459.886 205.166 460.06 205.276C460.257 205.332 460.393 205.456 460.466 205.648L462.593 211.233ZM488.123 195.113C488.05 194.921 488.049 194.745 488.12 194.586C488.215 194.374 488.359 194.232 488.551 194.159L495.287 191.593C495.478 191.52 495.661 191.538 495.835 191.648C496.032 191.704 496.167 191.829 496.241 192.021L511.066 230.939C511.139 231.131 511.128 231.333 511.033 231.545C510.962 231.704 510.83 231.82 510.638 231.893L503.902 234.459C503.71 234.532 503.516 234.54 503.318 234.483C503.145 234.374 503.021 234.223 502.948 234.031L496.895 218.141C496.822 217.949 496.69 217.89 496.498 217.963L483.775 222.81C483.583 222.883 483.523 223.015 483.596 223.207L489.649 239.097C489.722 239.289 489.711 239.491 489.616 239.703C489.545 239.862 489.413 239.978 489.222 240.051L482.486 242.617C482.294 242.69 482.099 242.698 481.902 242.642C481.728 242.532 481.605 242.381 481.532 242.189L466.707 203.271C466.633 203.079 466.633 202.904 466.704 202.745C466.799 202.533 466.942 202.39 467.134 202.317L473.87 199.751C474.062 199.678 474.245 199.696 474.418 199.806C474.616 199.863 474.751 199.987 474.824 200.179L480.723 215.665C480.797 215.857 480.929 215.917 481.121 215.844L493.844 210.997C494.036 210.924 494.095 210.791 494.022 210.599L488.123 195.113ZM544.333 219.057C543.949 219.203 543.627 219.107 543.365 218.767L539.489 213.783C539.354 213.658 539.229 213.618 539.113 213.662L524.951 219.057C524.836 219.101 524.769 219.214 524.751 219.397L525.23 225.675C525.261 226.102 525.085 226.389 524.701 226.536L517.39 229.321C517.159 229.409 516.965 229.417 516.806 229.345C516.632 229.236 516.533 229.032 516.507 228.734L514.117 185.079C514.086 184.651 514.263 184.364 514.646 184.218L523.685 180.775C524.069 180.629 524.391 180.726 524.653 181.066L551.913 215.247C551.981 215.309 552.037 215.397 552.081 215.513C552.212 215.858 552.067 216.111 551.645 216.272L544.333 219.057ZM524.214 211.756C524.263 212.001 524.384 212.087 524.575 212.014L534.708 208.154C534.938 208.067 534.971 207.922 534.807 207.721L523.112 192.596C523.015 192.457 522.935 192.422 522.873 192.489C522.797 192.519 522.761 192.598 522.766 192.728L524.214 211.756ZM565.993 165.45C565.92 165.258 565.919 165.082 565.991 164.923C566.086 164.711 566.229 164.569 566.421 164.496L573.157 161.93C573.349 161.857 573.531 161.875 573.705 161.984C573.902 162.041 574.038 162.165 574.111 162.357L588.936 201.275C589.009 201.467 588.998 201.669 588.903 201.881C588.832 202.04 588.7 202.156 588.508 202.229L582.003 204.708C581.619 204.854 581.292 204.803 581.021 204.554L556.724 185.594C556.603 185.508 556.512 185.499 556.45 185.566C556.373 185.595 556.364 185.687 556.422 185.84L565.792 210.092C565.865 210.283 565.855 210.485 565.759 210.697C565.688 210.856 565.557 210.972 565.365 211.046L558.629 213.611C558.437 213.685 558.242 213.693 558.045 213.636C557.871 213.526 557.748 213.376 557.675 213.184L542.85 174.266C542.777 174.074 542.776 173.898 542.847 173.739C542.942 173.527 543.085 173.385 543.277 173.312L549.783 170.833C550.167 170.687 550.494 170.738 550.764 170.987L574.96 189.854C575.081 189.94 575.18 189.968 575.256 189.939C575.318 189.872 575.32 189.761 575.262 189.608L565.993 165.45ZM611.163 194.127C608.169 195.267 605.321 195.693 602.618 195.404C599.9 195.077 597.525 194.092 595.493 192.449C593.46 190.806 591.918 188.603 590.865 185.839L585.799 172.54C584.746 169.777 584.432 167.106 584.856 164.527C585.28 161.948 586.405 159.652 588.231 157.638C590.057 155.624 592.467 154.046 595.46 152.906C598.416 151.78 601.218 151.35 603.868 151.615C606.542 151.827 608.881 152.716 610.884 154.283C612.911 155.796 614.428 157.877 615.437 160.525C615.569 160.87 615.419 161.169 614.988 161.421L608.405 164.39L608.29 164.434C607.906 164.58 607.634 164.442 607.473 164.02C606.698 161.986 605.444 160.596 603.709 159.85C602.013 159.09 600.148 159.097 598.114 159.872C596.041 160.662 594.606 161.912 593.807 163.622C593.047 165.318 593.054 167.184 593.829 169.218L599.114 183.092C599.874 185.088 601.103 186.466 602.799 187.227C604.533 187.972 606.437 187.95 608.509 187.161C610.543 186.386 611.941 185.151 612.701 183.455C613.5 181.744 613.519 179.891 612.759 177.895C612.598 177.473 612.748 177.174 613.208 176.998L620.054 174.72C620.246 174.647 620.421 174.646 620.58 174.718C620.777 174.774 620.905 174.879 620.964 175.033C621.973 177.681 622.231 180.264 621.74 182.78C621.286 185.282 620.139 187.521 618.299 189.497C616.497 191.458 614.118 193.001 611.163 194.127ZM647.469 140.807C647.542 140.999 647.531 141.201 647.436 141.413C647.365 141.572 647.233 141.688 647.042 141.761L628.158 148.955C627.966 149.028 627.907 149.16 627.98 149.352L631.379 158.276C631.452 158.468 631.585 158.527 631.777 158.454L644.155 153.739C644.347 153.666 644.529 153.684 644.703 153.794C644.9 153.85 645.036 153.975 645.109 154.167L647.236 159.751C647.309 159.943 647.298 160.145 647.203 160.357C647.132 160.516 647 160.632 646.808 160.705L634.43 165.42C634.239 165.493 634.179 165.626 634.252 165.818L637.805 175.144C637.878 175.336 638.011 175.395 638.203 175.322L657.086 168.129C657.278 168.056 657.461 168.074 657.634 168.184C657.832 168.241 657.967 168.365 658.04 168.557L660.167 174.141C660.24 174.333 660.229 174.535 660.134 174.747C660.063 174.906 659.931 175.022 659.739 175.095L633.142 185.227C632.95 185.3 632.755 185.309 632.558 185.252C632.384 185.142 632.261 184.991 632.188 184.8L617.362 145.881C617.289 145.689 617.288 145.514 617.36 145.355C617.455 145.143 617.598 145 617.79 144.927L644.388 134.795C644.58 134.722 644.763 134.741 644.936 134.85C645.134 134.907 645.269 135.031 645.342 135.223L647.469 140.807Z" fill="black"/>
</g>
<defs>
<clipPath id="clip0">
<rect width="897.85" height="163.245" fill="white" transform="translate(0.382812 320.293) rotate(-20.8535)"/>
</clipPath>
</defs>
</svg>
