<svg width="511" height="156" viewBox="0 0 511 156" fill="none" xmlns="http://www.w3.org/2000/svg">
<g clip-path="url(#clip0)">
<path d="M473.645 115.595L508.239 77.8347L471.782 38.1568L509.702 0C509.702 0 434.127 0.132259 390.951 0.132259H234.611C205.672 0.132259 180.391 15.7389 166.886 38.9504H0.101562V116.653H166.886C180.391 139.864 205.672 155.537 234.611 155.537H390.951C434.127 155.537 510.102 156.066 510.102 156.066L473.645 115.595Z" fill="#00A99D"/>
<path d="M269.7 67.0214C269.7 67.218 269.622 67.3949 269.465 67.5521C269.347 67.6701 269.189 67.729 268.993 67.729H249.651C249.455 67.729 249.357 67.8273 249.357 68.0239V77.1638C249.357 77.3604 249.455 77.4586 249.651 77.4586H262.329C262.526 77.4586 262.683 77.5373 262.801 77.6945C262.958 77.8124 263.037 77.9697 263.037 78.1662V83.8861C263.037 84.0826 262.958 84.2595 262.801 84.4168C262.683 84.5347 262.526 84.5937 262.329 84.5937H249.651C249.455 84.5937 249.357 84.692 249.357 84.8885V94.4412C249.357 94.6378 249.455 94.7361 249.651 94.7361H268.993C269.189 94.7361 269.347 94.8147 269.465 94.9719C269.622 95.0899 269.7 95.2471 269.7 95.4437V101.164C269.7 101.36 269.622 101.537 269.465 101.694C269.347 101.812 269.189 101.871 268.993 101.871H241.75C241.553 101.871 241.376 101.812 241.219 101.694C241.101 101.537 241.042 101.36 241.042 101.164V61.3016C241.042 61.105 241.101 60.9478 241.219 60.8298C241.376 60.6726 241.553 60.594 241.75 60.594H268.993C269.189 60.594 269.347 60.6726 269.465 60.8298C269.622 60.9478 269.7 61.105 269.7 61.3016V67.0214ZM274.913 88.0138C274.717 88.0138 274.54 87.9548 274.382 87.8369C274.265 87.6796 274.206 87.5027 274.206 87.3062V81.5864C274.206 81.3898 274.265 81.2325 274.382 81.1146C274.54 80.9574 274.717 80.8787 274.913 80.8787H294.195C294.392 80.8787 294.549 80.9574 294.667 81.1146C294.824 81.2325 294.903 81.3898 294.903 81.5864V87.3062C294.903 87.5027 294.824 87.6796 294.667 87.8369C294.549 87.9548 294.392 88.0138 294.195 88.0138H274.913ZM327.37 61.0657C327.567 60.7512 327.842 60.594 328.196 60.594H335.095C335.292 60.594 335.449 60.6726 335.567 60.8298C335.724 60.9478 335.803 61.105 335.803 61.3016V101.164C335.803 101.36 335.724 101.537 335.567 101.694C335.449 101.812 335.292 101.871 335.095 101.871H328.196C327.999 101.871 327.822 101.812 327.665 101.694C327.547 101.537 327.488 101.36 327.488 101.164V75.1589C327.488 75.0017 327.449 74.923 327.37 74.923C327.292 74.923 327.213 74.982 327.134 75.0999L320.884 84.8885C320.687 85.203 320.412 85.3603 320.058 85.3603H316.579C316.225 85.3603 315.95 85.203 315.754 84.8885L309.503 75.0999C309.425 74.982 309.346 74.9427 309.267 74.982C309.189 74.982 309.149 75.0606 309.149 75.2179V101.164C309.149 101.36 309.071 101.537 308.914 101.694C308.796 101.812 308.638 101.871 308.442 101.871H301.543C301.346 101.871 301.169 101.812 301.012 101.694C300.894 101.537 300.835 101.36 300.835 101.164V61.3016C300.835 61.105 300.894 60.9478 301.012 60.8298C301.169 60.6726 301.346 60.594 301.543 60.594H308.442C308.796 60.594 309.071 60.7512 309.267 61.0657L318.112 74.8051C318.23 75.041 318.348 75.041 318.466 74.8051L327.37 61.0657ZM369.842 101.871C369.449 101.871 369.194 101.675 369.076 101.281L367.307 95.5026C367.228 95.3454 367.13 95.2668 367.012 95.2668H352.506C352.388 95.2668 352.29 95.3454 352.211 95.5026L350.501 101.281C350.383 101.675 350.127 101.871 349.734 101.871H342.245C342.01 101.871 341.833 101.812 341.715 101.694C341.597 101.537 341.577 101.321 341.656 101.046L354.393 61.1836C354.511 60.7905 354.766 60.594 355.159 60.594H364.417C364.81 60.594 365.066 60.7905 365.184 61.1836L377.921 101.046C377.96 101.124 377.98 101.222 377.98 101.34C377.98 101.694 377.763 101.871 377.331 101.871H369.842ZM354.334 88.4855C354.294 88.7214 354.373 88.8393 354.57 88.8393H364.948C365.184 88.8393 365.262 88.7214 365.184 88.4855L359.877 70.9722C359.837 70.815 359.778 70.756 359.7 70.7953C359.621 70.7953 359.562 70.8543 359.523 70.9722L354.334 88.4855ZM384.485 101.871C384.288 101.871 384.111 101.812 383.954 101.694C383.836 101.537 383.777 101.36 383.777 101.164V61.3016C383.777 61.105 383.836 60.9478 383.954 60.8298C384.111 60.6726 384.288 60.594 384.485 60.594H391.384C391.58 60.594 391.738 60.6726 391.856 60.8298C392.013 60.9478 392.091 61.105 392.091 61.3016V101.164C392.091 101.36 392.013 101.537 391.856 101.694C391.738 101.812 391.58 101.871 391.384 101.871H384.485ZM400.589 101.871C400.393 101.871 400.216 101.812 400.059 101.694C399.941 101.537 399.882 101.36 399.882 101.164V61.3016C399.882 61.105 399.941 60.9478 400.059 60.8298C400.216 60.6726 400.393 60.594 400.589 60.594H407.489C407.685 60.594 407.842 60.6726 407.96 60.8298C408.118 60.9478 408.196 61.105 408.196 61.3016V94.4412C408.196 94.6378 408.294 94.7361 408.491 94.7361H427.773C427.97 94.7361 428.127 94.8147 428.245 94.9719C428.402 95.0899 428.481 95.2471 428.481 95.4437V101.164C428.481 101.36 428.402 101.537 428.245 101.694C428.127 101.812 427.97 101.871 427.773 101.871H400.589Z" fill="black"/>
</g>
<defs>
<clipPath id="clip0">
<rect width="510" height="156" fill="white" transform="translate(0.101562)"/>
</clipPath>
</defs>
</svg>
