<svg width="842" height="783" viewBox="0 0 842 783" fill="none" xmlns="http://www.w3.org/2000/svg">
<path d="M640.481 397.47C589.536 356.449 519.598 355.684 470.756 391.485L139.309 124.605L96.7411 177.472L428.187 444.352C403.595 499.752 419.263 567.917 470.209 608.938C530.598 657.564 617.655 649.641 664.68 591.24C711.704 532.839 700.871 446.096 640.481 397.47Z" fill="#8CB3FF"/>
<path d="M483.689 401.899L525.723 305.884C527.349 302.15 532.754 302.2 534.526 306L579.73 402.249" fill="#8CB3FF"/>
<path d="M497.258 479.053L492.74 421.423L543.289 449.888" fill="#8CB3FF"/>
<path d="M497.258 479.053L492.74 421.423L543.289 449.888" stroke="#2E89FF" stroke-width="11.8664" stroke-miterlimit="10" stroke-linecap="round" stroke-linejoin="round"/>
<path d="M557.49 469.11L604.979 439.562L601.674 495.194" fill="#8CB3FF"/>
<path d="M557.49 469.11L604.979 439.562L601.674 495.194" stroke="#2E89FF" stroke-width="11.8664" stroke-miterlimit="10" stroke-linecap="round" stroke-linejoin="round"/>
<path d="M630.302 527.738L603.68 577.945L575.48 527.724" fill="#8CB3FF"/>
<path d="M630.302 527.738L603.68 577.945L575.48 527.724" stroke="#2E89FF" stroke-width="11.8664" stroke-miterlimit="10" stroke-linecap="round" stroke-linejoin="round"/>
<path d="M546.633 544.692L494.102 564.692L507.899 510.983" fill="#8CB3FF"/>
<path d="M546.633 544.692L494.102 564.692L507.899 510.983" stroke="#2E89FF" stroke-width="11.8664" stroke-miterlimit="10" stroke-linecap="round" stroke-linejoin="round"/>
<path d="M569.84 414.532L658.085 344.749C663.306 340.646 671.066 345.485 669.661 351.993L647.009 460.796" fill="#8CB3FF"/>
<path d="M448.432 551.503L365.476 504.806C361.469 502.543 361.788 496.719 366.03 495.165L452.474 463.907" fill="#8CB3FF"/>
<path d="M525.064 603.862L452.76 651.847C443.908 657.698 434.22 650.49 437.169 640.256L460.861 557.21" fill="#8CB3FF"/>
<path d="M677.818 458.535L760.259 492.728C770.321 496.899 769.999 508.729 759.664 511.754L676.342 536.182" fill="#8CB3FF"/>
<path d="M620.869 599.647L601.691 693.374C600.446 699.491 592.522 701.046 588.661 695.935L530.357 618.433" fill="#8CB3FF"/>
<path d="M667.126 536.103L724.436 626.08C726.25 628.875 723.885 632.385 720.627 631.764L617.268 612.024" fill="#8CB3FF"/>
<path d="M212.065 209.237C211.946 209.385 211.78 209.471 211.566 209.494C211.406 209.511 211.252 209.46 211.104 209.341L196.597 197.66C196.449 197.541 196.315 197.555 196.196 197.703L190.659 204.58C190.54 204.727 190.555 204.861 190.703 204.98L200.241 212.66C200.389 212.779 200.46 212.934 200.453 213.124C200.5 213.308 200.464 213.473 200.345 213.621L196.88 217.925C196.761 218.073 196.594 218.158 196.381 218.181C196.221 218.198 196.067 218.147 195.919 218.028L186.38 210.348C186.232 210.229 186.099 210.243 185.98 210.391L176.121 222.636C176.002 222.784 175.835 222.869 175.622 222.892C175.461 222.91 175.307 222.859 175.16 222.74L169.969 218.56C169.821 218.441 169.724 218.29 169.677 218.106C169.683 217.916 169.746 217.747 169.865 217.599L194.013 187.609C194.132 187.461 194.272 187.378 194.432 187.361C194.646 187.338 194.827 187.386 194.974 187.505L215.426 203.973C215.574 204.092 215.645 204.246 215.638 204.436C215.685 204.62 215.649 204.786 215.53 204.934L212.065 209.237ZM211 251.598C210.704 251.36 210.631 251.057 210.78 250.69L212.95 245.271C212.986 245.105 212.96 244.986 212.871 244.915L201.958 236.127C201.869 236.056 201.747 236.055 201.593 236.126L196.806 239.438C196.479 239.662 196.167 239.655 195.872 239.417L190.237 234.88C190.06 234.737 189.963 234.586 189.945 234.426C189.952 234.236 190.068 234.061 190.294 233.902L224.025 211.628C224.352 211.403 224.663 211.41 224.959 211.648L231.924 217.257C232.22 217.495 232.293 217.797 232.143 218.165L217.578 255.871C217.56 255.954 217.515 256.04 217.444 256.129C217.229 256.395 216.96 256.397 216.634 256.135L211 251.598ZM207.441 232.133C207.269 232.286 207.256 232.423 207.404 232.542L215.212 238.829C215.39 238.972 215.52 238.931 215.604 238.705L222.221 222.314C222.286 222.172 222.278 222.092 222.195 222.074C222.136 222.026 222.056 222.035 221.955 222.1L207.441 232.133ZM231.159 268.415C228.852 266.557 227.183 264.482 226.152 262.19C225.146 259.868 224.824 257.513 225.187 255.124C225.551 252.735 226.59 250.476 228.304 248.347L236.556 238.098C238.271 235.969 240.256 234.472 242.513 233.607C244.769 232.743 247.127 232.569 249.586 233.087C252.046 233.605 254.429 234.792 256.736 236.65C259.013 238.484 260.664 240.52 261.689 242.759C262.767 244.992 263.148 247.274 262.833 249.603C262.57 251.927 261.618 254.109 259.974 256.15C259.76 256.416 259.452 256.436 259.049 256.21L253.608 252.341L253.52 252.269C253.224 252.031 253.207 251.749 253.469 251.424C254.731 249.856 255.255 248.206 255.041 246.474C254.857 244.766 253.981 243.28 252.413 242.018C250.816 240.732 249.149 240.169 247.411 240.33C245.702 240.514 244.217 241.39 242.954 242.958L234.345 253.65C233.107 255.188 232.58 256.811 232.764 258.519C232.978 260.252 233.884 261.761 235.481 263.047C237.049 264.309 238.687 264.848 240.395 264.664C242.133 264.503 243.621 263.654 244.86 262.116C245.122 261.79 245.43 261.771 245.785 262.056L250.797 266.458C250.945 266.577 251.028 266.716 251.045 266.877C251.092 267.061 251.068 267.212 250.972 267.33C249.329 269.371 247.388 270.782 245.15 271.564C242.942 272.369 240.619 272.498 238.184 271.951C235.778 271.427 233.436 270.249 231.159 268.415ZM290.657 272.519C290.538 272.667 290.372 272.753 290.158 272.776C289.998 272.793 289.844 272.742 289.696 272.623L275.145 260.906C274.997 260.787 274.863 260.802 274.744 260.949L269.207 267.826C269.088 267.974 269.103 268.107 269.25 268.226L278.789 275.907C278.937 276.026 279.007 276.18 279.001 276.37C279.048 276.554 279.012 276.72 278.892 276.868L275.427 281.171C275.308 281.319 275.142 281.404 274.928 281.427C274.768 281.445 274.614 281.394 274.466 281.275L264.928 273.594C264.78 273.475 264.647 273.49 264.528 273.638L258.741 280.825C258.622 280.973 258.636 281.106 258.784 281.225L273.335 292.942C273.483 293.061 273.554 293.215 273.547 293.405C273.594 293.589 273.558 293.755 273.439 293.903L269.974 298.206C269.855 298.354 269.689 298.44 269.475 298.463C269.315 298.48 269.161 298.429 269.013 298.31L248.517 281.806C248.369 281.687 248.271 281.536 248.224 281.352C248.231 281.162 248.294 280.993 248.413 280.845L272.561 250.855C272.68 250.707 272.82 250.625 272.98 250.607C273.193 250.584 273.374 250.632 273.522 250.751L294.018 267.255C294.166 267.374 294.237 267.528 294.231 267.718C294.277 267.902 294.241 268.068 294.122 268.216L290.657 272.519ZM305.804 301.243C305.555 301.189 305.484 301.277 305.59 301.509C307.233 305.221 306.697 308.762 303.982 312.134C301.672 315.003 298.946 316.391 295.803 316.298C292.684 316.175 289.542 314.84 286.377 312.292L274.887 303.04C274.739 302.921 274.642 302.769 274.595 302.585C274.601 302.395 274.664 302.227 274.783 302.079L298.931 272.088C299.05 271.94 299.19 271.858 299.35 271.841C299.564 271.818 299.745 271.866 299.892 271.985L311.028 280.951C318.037 286.595 319.256 292.256 314.684 297.935C312.302 300.893 309.342 301.995 305.804 301.243ZM301.515 282.139C301.367 282.02 301.233 282.035 301.114 282.183L295.542 289.104C295.423 289.251 295.437 289.385 295.585 289.504L300.776 293.683C302.166 294.803 303.507 295.347 304.8 295.315C306.093 295.284 307.192 294.706 308.097 293.582C309.026 292.429 309.368 291.217 309.122 289.947C308.901 288.648 308.096 287.438 306.705 286.319L301.515 282.139ZM290.735 306.879C292.096 307.975 293.435 308.492 294.751 308.431C296.092 308.34 297.25 307.689 298.227 306.476C299.203 305.263 299.581 304.007 299.359 302.708C299.162 301.379 298.368 300.155 296.978 299.035L291.477 294.606C291.329 294.487 291.196 294.501 291.077 294.649L285.147 302.014C285.028 302.161 285.042 302.295 285.19 302.414L290.735 306.879ZM312.938 334.483C310.631 332.625 308.972 330.509 307.959 328.134C306.976 325.782 306.675 323.371 307.057 320.899C307.462 318.398 308.558 316.038 310.344 313.82L317.988 304.326C319.751 302.137 321.799 300.593 324.132 299.693C326.466 298.793 328.874 298.587 331.357 299.075C333.894 299.557 336.316 300.727 338.623 302.585C340.959 304.466 342.619 306.583 343.602 308.934C344.638 311.28 344.966 313.689 344.584 316.16C344.203 318.632 343.131 320.962 341.369 323.151L333.724 332.645C331.938 334.863 329.866 336.437 327.509 337.367C325.152 338.296 322.705 338.52 320.168 338.037C317.685 337.549 315.275 336.364 312.938 334.483ZM317.261 329.115C318.887 330.425 320.62 330.967 322.459 330.741C324.299 330.516 325.909 329.546 327.29 327.83L335.149 318.07C336.53 316.354 337.135 314.574 336.963 312.729C336.844 310.879 335.956 309.287 334.3 307.953C332.673 306.643 330.929 306.116 329.066 306.371C327.256 306.62 325.661 307.603 324.28 309.318L316.421 319.078C315.039 320.794 314.42 322.562 314.563 324.383C314.735 326.228 315.634 327.805 317.261 329.115ZM340.955 357.042C338.648 355.184 336.988 353.068 335.976 350.693C334.993 348.341 334.692 345.929 335.074 343.458C335.479 340.956 336.574 338.597 338.361 336.378L346.005 326.884C347.767 324.696 349.815 323.151 352.149 322.251C354.482 321.352 356.891 321.146 359.374 321.634C361.91 322.116 364.332 323.286 366.639 325.144C368.976 327.025 370.635 329.142 371.618 331.493C372.655 333.839 372.982 336.248 372.601 338.719C372.219 341.191 371.147 343.521 369.385 345.71L361.741 355.204C359.955 357.422 357.883 358.996 355.526 359.926C353.168 360.855 350.721 361.079 348.185 360.596C345.701 360.108 343.292 358.923 340.955 357.042ZM345.277 351.674C346.904 352.984 348.637 353.526 350.476 353.3C352.315 353.075 353.925 352.104 355.307 350.389L363.165 340.629C364.547 338.913 365.151 337.133 364.979 335.288C364.861 333.438 363.973 331.846 362.317 330.512C360.69 329.202 358.945 328.675 357.082 328.93C355.273 329.179 353.677 330.161 352.296 331.877L344.437 341.637C343.056 343.352 342.437 345.121 342.579 346.942C342.751 348.787 343.651 350.364 345.277 351.674ZM358.85 370.647C358.702 370.528 358.605 370.376 358.558 370.192C358.565 370.002 358.627 369.833 358.746 369.686L382.895 339.695C383.014 339.547 383.153 339.465 383.313 339.447C383.527 339.424 383.708 339.472 383.856 339.591L389.046 343.771C389.194 343.89 389.265 344.044 389.258 344.234C389.305 344.418 389.269 344.584 389.15 344.732L379.148 357.154C379.076 357.243 379.058 357.326 379.094 357.403C379.153 357.451 379.236 357.469 379.343 357.457L399.843 352.976C400.187 352.912 400.492 352.987 400.759 353.202L406.615 357.917C406.851 358.107 406.94 358.3 406.88 358.496C406.844 358.662 406.695 358.786 406.434 358.868L386.36 363.546C386.176 363.593 386.078 363.685 386.065 363.821L382.997 389.065C382.913 389.291 382.859 389.418 382.835 389.447C382.669 389.654 382.437 389.639 382.142 389.401L376.285 384.685C375.99 384.447 375.878 384.162 375.95 383.83L378.341 364.695C378.359 364.612 378.339 364.547 378.28 364.499C378.22 364.451 378.137 364.433 378.031 364.445L372.414 365.699C372.259 365.77 372.158 365.835 372.111 365.894L365.002 374.722C364.883 374.87 364.716 374.956 364.503 374.979C364.343 374.996 364.189 374.945 364.041 374.826L358.85 370.647Z" fill="black"/>
</svg>
