<svg width="903" height="361" viewBox="0 0 903 361" fill="none" xmlns="http://www.w3.org/2000/svg">
<g clip-path="url(#clip0)">
<path d="M825.936 57.4952C836.407 49.8848 850.096 47.5705 862.232 52.0924C871.152 55.4435 878.8 61.9502 883.174 71.1687C884.288 73.5542 885.24 75.9803 885.909 78.6492C886.558 81.2372 886.964 83.8861 887.027 86.5351C887.438 96.7471 883.763 106.092 877.479 113.255C868.911 122.967 855.769 127.465 842.927 125.613L815.018 121.607L692.307 150.908L107.057 342.753C67.67 352.627 27.7963 328.669 17.9427 289.363C8.06886 249.977 32.0266 210.103 71.3324 200.249L680.145 105.82L803.116 74.1327L825.936 57.4952Z" fill="#FFFF00"/>
<path d="M118.577 303.861C118.341 303.931 118.107 303.922 117.876 303.836C117.679 303.689 117.545 303.497 117.476 303.26L103.391 255.298C103.321 255.062 103.337 254.852 103.437 254.668C103.571 254.424 103.756 254.266 103.992 254.197L112.293 251.759C112.53 251.69 112.747 251.729 112.944 251.876C113.175 251.963 113.325 252.124 113.395 252.361L127.48 300.322C127.549 300.559 127.517 300.799 127.383 301.044C127.283 301.228 127.115 301.354 126.878 301.424L118.577 303.861ZM151.29 241.232C151.22 240.996 151.236 240.786 151.336 240.602C151.469 240.357 151.655 240.2 151.891 240.131L160.192 237.693C160.429 237.624 160.646 237.663 160.843 237.81C161.074 237.896 161.224 238.058 161.293 238.294L175.378 286.256C175.448 286.493 175.416 286.733 175.282 286.978C175.182 287.162 175.013 287.288 174.777 287.357L166.76 289.712C166.287 289.851 165.9 289.759 165.6 289.436L138.306 264.466C138.17 264.352 138.061 264.332 137.981 264.408C137.886 264.435 137.867 264.544 137.922 264.733L146.857 294.632C146.926 294.868 146.894 295.109 146.76 295.354C146.66 295.537 146.492 295.664 146.255 295.733L137.954 298.171C137.718 298.241 137.484 298.232 137.253 298.146C137.056 297.998 136.922 297.806 136.853 297.57L122.768 249.608C122.699 249.372 122.714 249.161 122.814 248.978C122.948 248.733 123.133 248.576 123.369 248.507L131.387 246.152C131.86 246.013 132.246 246.105 132.547 246.428L159.727 271.277C159.864 271.391 159.979 271.434 160.074 271.406C160.154 271.331 160.167 271.199 160.111 271.01L151.29 241.232ZM202.22 279.915C198.436 281.026 194.952 281.407 191.767 281.058C188.568 280.662 185.861 279.581 183.647 277.816C181.467 275.991 179.939 273.588 179.064 270.608L178.606 269.047C178.536 268.81 178.552 268.6 178.652 268.417C178.786 268.172 178.971 268.015 179.207 267.945L187.295 265.57C187.532 265.501 187.749 265.54 187.946 265.687C188.177 265.774 188.327 265.935 188.397 266.172L188.709 267.236C189.265 269.128 190.612 270.479 192.751 271.289C194.876 272.053 197.429 271.997 200.409 271.122C202.916 270.385 204.631 269.316 205.555 267.915C206.466 266.466 206.692 264.961 206.233 263.4C205.9 262.265 205.244 261.43 204.265 260.895C203.272 260.313 202.03 259.933 200.539 259.754C199.081 259.515 196.78 259.291 193.637 259.084C190.148 258.927 187.126 258.607 184.569 258.125C182.06 257.628 179.764 256.633 177.681 255.138C175.631 253.582 174.183 251.361 173.336 248.476C172.502 245.638 172.506 242.94 173.347 240.381C174.189 237.821 175.743 235.592 178.011 233.693C180.279 231.794 183.116 230.344 186.522 229.344C190.117 228.289 193.497 227.99 196.662 228.447C199.876 228.891 202.603 230.042 204.844 231.902C207.119 233.7 208.701 236.112 209.59 239.14L209.903 240.204C209.972 240.44 209.94 240.681 209.806 240.926C209.706 241.109 209.538 241.236 209.301 241.305L201.142 243.701C200.906 243.771 200.672 243.762 200.441 243.676C200.244 243.528 200.11 243.336 200.041 243.1L199.874 242.532C199.291 240.546 197.97 239.11 195.911 238.224C193.887 237.277 191.455 237.221 188.617 238.054C186.394 238.707 184.783 239.694 183.784 241.015C182.832 242.322 182.599 243.803 183.085 245.459C183.432 246.641 184.079 247.531 185.024 248.126C186.017 248.708 187.32 249.122 188.934 249.367C190.581 249.552 193.077 249.743 196.424 249.942C200.143 250.186 203.088 250.503 205.258 250.893C207.475 251.269 209.618 252.181 211.687 253.629C213.79 255.015 215.279 257.198 216.154 260.178C217.46 264.624 216.863 268.627 214.363 272.187C211.849 275.7 207.802 278.276 202.22 279.915ZM247.09 212.174C247.326 212.105 247.543 212.144 247.741 212.291C247.972 212.378 248.122 212.539 248.191 212.775L250.233 219.728C250.303 219.965 250.27 220.206 250.137 220.45C250.037 220.634 249.868 220.76 249.632 220.83L236.932 224.559C236.695 224.629 236.612 224.782 236.681 225.018L248.37 264.821C248.439 265.057 248.407 265.298 248.274 265.543C248.173 265.726 248.005 265.853 247.769 265.922L239.467 268.36C239.231 268.429 238.997 268.421 238.766 268.335C238.569 268.187 238.435 267.995 238.366 267.759L226.677 227.956C226.608 227.72 226.455 227.636 226.218 227.706L213.873 231.331C213.637 231.4 213.403 231.392 213.172 231.306C212.975 231.158 212.841 230.966 212.772 230.73L210.73 223.777C210.661 223.54 210.676 223.33 210.776 223.146C210.91 222.902 211.095 222.745 211.331 222.675L247.09 212.174ZM296.647 251.568C296.174 251.707 295.797 251.561 295.516 251.13L291.346 244.802C291.196 244.64 291.05 244.58 290.908 244.622L273.455 249.748C273.313 249.789 273.222 249.919 273.183 250.136L273.167 257.693C273.164 258.207 272.926 258.534 272.453 258.673L263.443 261.319C263.159 261.403 262.925 261.394 262.742 261.294C262.544 261.146 262.444 260.893 262.442 260.534L263.682 208.072C263.685 207.557 263.923 207.231 264.396 207.092L275.535 203.821C276.008 203.682 276.385 203.828 276.666 204.259L306.076 247.721C306.151 247.801 306.209 247.913 306.251 248.054C306.376 248.48 306.178 248.769 305.658 248.922L296.647 251.568ZM273.258 240.942C273.294 241.24 273.43 241.354 273.667 241.285L286.154 237.618C286.438 237.534 286.49 237.365 286.313 237.109L273.739 217.912C273.636 217.737 273.544 217.687 273.464 217.762C273.369 217.789 273.319 217.881 273.313 218.037L273.258 240.942Z" fill="black"/>
</g>
<defs>
<clipPath id="clip0">
<rect width="893.236" height="146.913" fill="white" transform="translate(902.149 143.431) rotate(165.927)"/>
</clipPath>
</defs>
</svg>
