<svg width="366" height="346" viewBox="0 0 366 346" fill="none" xmlns="http://www.w3.org/2000/svg">
<circle cx="173.218" cy="172.985" r="122.319" transform="rotate(44.831 173.218 172.985)" fill="#C4C4C4"/>
<path d="M249.046 103.364C253.733 91.9963 291.178 114.721 315.924 70.6362" stroke="#C4C4C4" stroke-width="8"/>
<path d="M302.253 63.9135L279.645 54.4124M312.937 53.166L312.079 21.7861M324.452 64.6134L345.439 43.5023M328.315 76.8488L349.756 79.8472M318.013 87.2124L322.664 107.1" stroke="#C4C4C4" stroke-width="8"/>
<path d="M124.836 164.056C124.911 163.749 125.091 163.549 125.377 163.455L130.951 161.618C131.11 161.566 131.258 161.588 131.395 161.683C131.554 161.737 131.659 161.843 131.711 162.002L142.322 194.209C142.375 194.367 142.358 194.531 142.273 194.7C142.209 194.827 142.098 194.916 141.939 194.969L136.365 196.805C136.206 196.857 136.047 196.857 135.889 196.803C135.752 196.708 135.657 196.581 135.605 196.422L128.682 175.411C128.641 175.284 128.588 175.231 128.524 175.252C128.461 175.273 128.413 175.341 128.381 175.458L125.936 185.03C125.861 185.337 125.681 185.537 125.395 185.631L122.584 186.557C122.298 186.652 122.034 186.598 121.791 186.396L114.136 180.151C114.041 180.077 113.967 180.066 113.914 180.119C113.85 180.139 113.839 180.213 113.881 180.341L120.788 201.303C120.84 201.462 120.824 201.626 120.738 201.795C120.674 201.922 120.563 202.011 120.404 202.064L114.83 203.9C114.671 203.952 114.513 203.952 114.354 203.898C114.217 203.803 114.122 203.676 114.07 203.517L103.459 171.31C103.407 171.151 103.412 171.008 103.476 170.882C103.561 170.713 103.683 170.602 103.842 170.55L109.417 168.713C109.702 168.619 109.967 168.673 110.209 168.875L121.013 177.621C121.171 177.78 121.266 177.749 121.299 177.527L124.836 164.056ZM157.599 189.756C157.44 189.809 157.282 189.808 157.123 189.755C156.986 189.659 156.891 189.532 156.839 189.373L152.868 177.319C152.826 177.192 152.779 177.102 152.726 177.049L136.413 160.558C136.307 160.452 136.244 160.367 136.223 160.304C136.14 160.05 136.273 159.865 136.622 159.75L142.625 157.772C142.943 157.668 143.212 157.737 143.433 157.981L153.564 168.692C153.722 168.852 153.817 168.82 153.85 168.598L155.63 153.963C155.663 153.635 155.838 153.419 156.156 153.314L162.254 151.305C162.476 151.232 162.64 151.248 162.745 151.355C162.872 151.418 162.924 151.577 162.902 151.831L159.491 174.82C159.48 174.894 159.496 174.995 159.538 175.122L163.509 187.175C163.561 187.334 163.545 187.498 163.46 187.667C163.396 187.794 163.284 187.883 163.126 187.936L157.599 189.756ZM187.171 180.066C186.853 180.171 186.595 180.08 186.395 179.794L165.969 150.821L165.859 150.646C165.754 150.328 165.876 150.112 166.226 149.997L172.229 148.019C172.578 147.904 172.853 147.989 173.053 148.276L187.049 169.438C187.113 169.523 187.176 169.554 187.239 169.534C187.303 169.513 187.335 169.449 187.335 169.343L185.916 144.037C185.907 143.688 186.077 143.456 186.426 143.341L192.287 141.41C192.477 141.348 192.641 141.364 192.778 141.46C192.915 141.555 192.983 141.709 192.983 141.921L193.636 177.408C193.646 177.757 193.492 177.984 193.174 178.088L187.171 180.066ZM208.813 172.936C208.654 172.988 208.495 172.988 208.337 172.934C208.2 172.839 208.105 172.711 208.053 172.553L197.442 140.346C197.389 140.187 197.395 140.044 197.459 139.918C197.544 139.749 197.666 139.638 197.825 139.586L203.399 137.749C203.558 137.697 203.706 137.719 203.843 137.814C204.002 137.868 204.107 137.974 204.159 138.133L214.77 170.339C214.823 170.498 214.806 170.662 214.721 170.831C214.657 170.958 214.546 171.047 214.387 171.099L208.813 172.936ZM223.817 130.97C225.913 130.279 227.896 130.101 229.767 130.435C231.638 130.769 233.263 131.589 234.644 132.895C236.046 134.158 237.082 135.806 237.752 137.839C238.411 139.84 238.531 141.755 238.113 143.583C237.726 145.4 236.848 147.01 235.478 148.412C234.131 149.771 232.393 150.802 230.265 151.503L223.499 153.732C223.341 153.784 223.287 153.889 223.34 154.048L227.342 166.197C227.395 166.356 227.378 166.52 227.293 166.689C227.229 166.816 227.118 166.905 226.959 166.957L221.385 168.794C221.226 168.846 221.067 168.846 220.909 168.792C220.772 168.697 220.677 168.569 220.625 168.411L209.998 136.156C209.946 135.997 209.951 135.855 210.015 135.728C210.1 135.559 210.222 135.448 210.381 135.396L223.817 130.97ZM227.776 146.354C229.237 145.873 230.276 145.073 230.894 143.954C231.501 142.804 231.579 141.545 231.129 140.18C230.669 138.782 229.852 137.801 228.681 137.236C227.509 136.672 226.192 136.63 224.731 137.112L218.68 139.105C218.522 139.157 218.468 139.263 218.521 139.422L221.409 148.188C221.461 148.347 221.567 148.4 221.726 148.348L227.776 146.354Z" fill="black"/>
</svg>
