<svg width="506" height="398" viewBox="0 0 506 398" fill="none" xmlns="http://www.w3.org/2000/svg">
<path d="M54.9648 0H0V397.438H54.9648C87.2789 397.438 103.429 381.123 103.429 348.506V229.781C103.429 207.944 96.2186 193.329 81.7838 185.949C90.1471 173.469 95.8567 161.977 98.8857 151.474C101.915 140.984 103.429 127.371 103.429 110.621V49.3404C103.429 16.46 87.2655 0 54.9648 0ZM67.5098 343.828C67.5098 349.508 66.4242 353.975 64.2663 357.23C62.1085 360.499 57.8464 362.12 51.4935 362.12H35.9195V281.269C35.9195 268.223 37.434 257.653 40.463 249.575C43.492 241.483 49.7645 230.782 59.2939 217.446C62.4704 218.579 64.6282 220.569 65.7809 223.402C66.9335 226.236 67.5098 229.939 67.5098 234.459V343.828ZM67.5098 115.747C67.5098 128.794 65.7004 139.508 62.0951 147.876C58.4897 156.245 50.9038 168.237 39.3774 183.84L35.9195 188.519V35.3185H51.4935C57.833 35.3185 62.0951 36.9526 64.2663 40.2077C66.4242 43.4628 67.5098 47.9435 67.5098 53.6103V115.747Z" fill="#FD1350"/>
<path d="M136.32 0L115.117 397.438H148.437L148.865 389.347C149.442 379.423 150.299 371.555 151.466 365.731C152.618 359.919 154.923 353.883 158.395 347.65C161.853 341.416 167.334 333.18 174.84 322.966L180.898 314.453L185.227 397.425H218.546L197.343 0H136.32ZM172.24 259.578C169.64 266.668 163.582 276.881 154.066 290.218L166.611 53.2017L176.127 229.372C176.14 242.406 174.84 252.487 172.24 259.578Z" fill="#FD1350"/>
<path d="M381.847 35.3185C381.847 48.9319 380.118 60.0019 376.66 68.502C373.202 77.0153 365.696 89.0737 354.157 104.677C351.556 108.077 350.109 109.935 349.828 110.212V0H314.337V397.438H349.828L350.256 278.713C350.256 265.666 352.052 176.658 355.671 168.29C359.276 159.921 366.849 147.942 378.389 132.339L381.847 127.66V397.451H417.766V0H381.847V35.3185Z" fill="#FD1350"/>
<path d="M438.047 397.438H505.999V361.698H473.966V240.495H505.999V204.742H473.966V90.207H505.999V54.4668H438.047V397.438Z" fill="#FD1350"/>
<path d="M505.986 0H438.047V35.7402H505.986V0Z" fill="#FD1350"/>
<path d="M272.353 169.001L288.061 0H237.278L229.679 278.265L253.737 254.359L229.679 397.438H297.189V361.698H272.085L302.952 138.111L272.353 169.001Z" fill="#FD1350"/>
</svg>
