<svg width="144" height="115" viewBox="0 0 144 115" fill="none" xmlns="http://www.w3.org/2000/svg">
<path d="M15.6422 0.962646H0V114.068H15.6422C24.8384 114.068 29.4345 109.425 29.4345 100.143V66.3551C29.4345 60.1406 27.3825 55.9814 23.2745 53.8812C25.6546 50.3295 27.2795 47.0592 28.1415 44.0701C29.0035 41.0847 29.4345 37.2105 29.4345 32.4437V15.0042C29.4345 5.64693 24.8346 0.962646 15.6422 0.962646ZM19.2124 98.8113C19.2124 100.428 18.9034 101.699 18.2893 102.625C17.6752 103.556 16.4623 104.017 14.6543 104.017H10.2222V81.008C10.2222 77.2951 10.6532 74.2873 11.5152 71.9883C12.3772 69.6855 14.1623 66.6401 16.8742 62.8447C17.7782 63.1672 18.3923 63.7336 18.7203 64.5399C19.0483 65.3462 19.2124 66.4001 19.2124 67.6865V98.8113ZM19.2124 33.9027C19.2124 37.6156 18.6974 40.6647 17.6714 43.0462C16.6454 45.4277 14.4865 48.8406 11.2063 53.2811L10.2222 54.6125V11.0138H14.6543C16.4585 11.0138 17.6714 11.4788 18.2893 12.4052C18.9034 13.3316 19.2124 14.6067 19.2124 16.2194V33.9027Z" fill="#263683"/>
<path d="M38.7949 0.962646L32.7607 114.068H42.243L42.365 111.765C42.529 108.941 42.7731 106.702 43.105 105.045C43.433 103.391 44.0891 101.673 45.0769 99.8989C46.061 98.125 47.621 95.781 49.757 92.8744L51.4811 90.4516L52.7131 114.064H62.1953L56.1611 0.962646H38.7949ZM49.0171 74.8348C48.2771 76.8526 46.5531 79.7591 43.8449 83.5546L47.4151 16.1031L50.1232 66.2388C50.127 69.948 49.757 72.8171 49.0171 74.8348Z" fill="#263683"/>
<path d="M108.668 11.0138C108.668 14.888 108.176 18.0383 107.192 20.4574C106.208 22.8801 104.072 26.3118 100.788 30.7523C100.048 31.7199 99.6358 32.2487 99.5557 32.3275V0.962646H89.4556V114.068H99.5557L99.6777 80.2804C99.6777 76.5675 100.189 51.2371 101.219 48.8556C102.245 46.4741 104.4 43.0649 107.684 38.6244L108.668 37.293V114.072H118.89V0.962646H108.668V11.0138Z" fill="#263683"/>
<path d="M124.663 114.068H144.001V103.897H134.885V69.4042H144.001V59.2293H134.885V26.6343H144.001V16.4631H124.663V114.068Z" fill="#263683"/>
<path d="M143.997 0.962646H124.663V11.1338H143.997V0.962646Z" fill="#263683"/>
<path d="M77.5083 49.0581L81.9786 0.962646H67.5264L65.3638 80.1529L72.2103 73.3496L65.3638 114.068H84.5761V103.897H77.432L86.2163 40.2671L77.5083 49.0581Z" fill="#263683"/>
</svg>
