<svg width="451" height="223" viewBox="0 0 451 223" fill="none" xmlns="http://www.w3.org/2000/svg">
<path d="M327.378 33.5993C289.242 33.5993 257.201 58.826 248.111 92.9443L0 92.9443L0 132.519H248.111C257.201 166.671 289.242 191.898 327.378 191.898C372.584 191.898 409.223 156.466 409.223 112.748C409.223 69.0312 372.584 33.5993 327.378 33.5993Z" fill="#8CB3FF"/>
<path d="M257.792 92.9444L241.772 33.9698C241.145 31.6796 243.618 29.7261 245.812 30.8039L301.536 57.984" fill="#8CB3FF"/>
<path d="M292.167 123.021L269.042 98.5015L302.407 92.9442" fill="#8CB3FF"/>
<path d="M292.167 123.021L269.042 98.5015L302.407 92.9442" stroke="#2E89FF" stroke-width="11.8664" stroke-miterlimit="10" stroke-linecap="round" stroke-linejoin="round"/>
<path d="M315.886 96.4805L326.647 65.6966L345.489 92.1694" fill="#8CB3FF"/>
<path d="M315.886 96.4805L326.647 65.6966L345.489 92.1694" stroke="#2E89FF" stroke-width="11.8664" stroke-miterlimit="10" stroke-linecap="round" stroke-linejoin="round"/>
<path d="M370.39 96.4807L376.659 129.016L345.488 116.521" fill="#8CB3FF"/>
<path d="M370.39 96.4807L376.659 129.016L345.488 116.521" stroke="#2E89FF" stroke-width="11.8664" stroke-miterlimit="10" stroke-linecap="round" stroke-linejoin="round"/>
<path d="M338.593 134.775L322.05 163.067L308.676 133.63" fill="#8CB3FF"/>
<path d="M338.593 134.775L322.05 163.067L308.676 133.63" stroke="#2E89FF" stroke-width="11.8664" stroke-miterlimit="10" stroke-linecap="round" stroke-linejoin="round"/>
<path d="M301.536 67.1786L316.094 3.2193C316.965 -0.552914 322.258 -1.19284 324 2.27625L353.499 59.9709" fill="#8CB3FF"/>
<path d="M296.486 173.777L241.737 182.905C239.09 183.343 237.105 180.581 238.463 178.324L266.29 132.519" fill="#8CB3FF"/>
<path d="M350.434 169.534L335.145 217.764C333.264 223.658 326.229 223.928 323.826 218.202L304.218 171.824" fill="#8CB3FF"/>
<path d="M366.664 47.6777L416.607 33.0603C422.701 31.2753 426.881 36.7652 423.293 41.9183L394.387 83.48" fill="#8CB3FF"/>
<path d="M392.4 132.586L417.964 182.164C419.635 185.397 416.606 189.001 412.983 188.092L358.165 174.215" fill="#8CB3FF"/>
<path d="M390.172 86.8142L449.1 106.719C450.946 107.326 451.155 109.784 449.448 110.694L395.291 139.524" fill="#8CB3FF"/>
</svg>
